<?xml version="1.0" encoding="utf-8"?>
<!-- Generator: Adobe Illustrator 17.0.0, SVG Export Plug-In . SVG Version: 6.00 Build 0)  -->
<!DOCTYPE svg PUBLIC "-//W3C//DTD SVG 1.1//EN" "http://www.w3.org/Graphics/SVG/1.1/DTD/svg11.dtd">
<svg version="1.1" id="Layer_1" xmlns="http://www.w3.org/2000/svg" xmlns:xlink="http://www.w3.org/1999/xlink" x="0px" y="0px"
	 width="26px" height="23.886px" viewBox="0 0 26 23.886" enable-background="new 0 0 26 23.886" xml:space="preserve">
<g>
	<polygon fill="#868E96" points="11.141,11.101 10.387,8.739 9.57,11.101 	"/>
	<path fill="#868E96" d="M13,0C5.82,0,0,4.601,0,10.277c0,3.694,2.466,6.933,6.167,8.744c-0.272,1.015-0.984,3.677-1.128,4.247
		c-0.176,0.707,0.259,0.698,0.544,0.507c0.223-0.149,3.562-2.419,5.003-3.399c0.781,0.116,1.588,0.177,2.413,0.177
		c7.18,0,13-4.601,13-10.277C26,4.601,20.18,0,13,0z M17.791,7.656c-0.008-0.285,0.358-0.432,0.715-0.432
		c0.334,0,0.66,0.128,0.667,0.394c0.019,0.701,0.001,1.969,0.001,1.969s2.016-2.018,2.303-2.303
		c0.296-0.295,1.213,0.629,0.917,0.923c-0.507,0.504-1.795,1.897-1.795,1.897l1.896,2.497c0.361,0.476-0.775,1.337-1.136,0.86
		l-1.787-2.437l-0.409,0.328c0,0-0.001,1.204,0,1.838c0,0.546-1.39,0.547-1.391,0.001C17.774,12.844,17.805,8.173,17.791,7.656z
		 M11.196,7.632c0.24,0.513,1.557,4.13,1.937,5.135c0.267,0.703-1.02,1.191-1.287,0.488c-0.329-0.869-0.244-0.908-0.244-0.908
		l-2.48,0l-0.27,0.948c-0.289,0.665-1.535,0.123-1.247-0.542c0.4-0.92,1.604-4.387,1.938-5.121c0.131-0.291,0.442-0.407,0.76-0.407
		C10.688,7.225,11.085,7.395,11.196,7.632z M7.852,7.003c0.842,0,0.841,1.427-0.001,1.427C6.957,8.429,6.503,8.529,6.503,8.529
		l-0.006,4.536c0.002,0.632-1.405,0.599-1.407-0.033c0.007-0.867-0.001-4.636-0.001-4.636H3.733c-0.794,0-0.796-1.393-0.001-1.393
		H7.852z M13.669,12.818c0,0-0.004-3.797-0.006-4.975c-0.002-0.415,0.366-0.622,0.734-0.622c0.366,0,0.731,0.206,0.732,0.619
		c0.002,0.854-0.003,4.366-0.003,4.366s1.162,0.007,1.798,0.007c0.637,0,0.641,1.355,0.003,1.355c-0.637,0-2.074,0.006-2.72,0.006
		C13.561,13.574,13.669,12.818,13.669,12.818z"/>
</g>
</svg>
